<?xml version="1.0" encoding="UTF-8" standalone="no"?>
<svg
   xmlns:dc="http://purl.org/dc/elements/1.1/"
   xmlns:cc="http://creativecommons.org/ns#"
   xmlns:rdf="http://www.w3.org/1999/02/22-rdf-syntax-ns#"
   xmlns:svg="http://www.w3.org/2000/svg"
   xmlns="http://www.w3.org/2000/svg"
   version="1.1"
   width="16"
   height="16"
   viewBox="0 0 32 32"
   id="svg2">
  <metadata
     id="metadata4">
    <rdf:RDF>
      <cc:Work
         rdf:about="">
        <dc:format>image/svg+xml</dc:format>
        <dc:type
           rdf:resource="http://purl.org/dc/dcmitype/StillImage" />
        <dc:title></dc:title>
      </cc:Work>
    </rdf:RDF>
  </metadata>
  <defs
     id="defs6" />
  <path
     d="M 9.20222,11.721735 9.20222,8.1116068 C 10.65406,7.4962545 11.67007,6.0823984 11.67007,4.436509 11.67007,2.2272428 9.84208,0.43501781 7.58519,0.43501781 5.32799,0.43501781 3.5,2.2272428 3.5,4.436509 3.5,6.0823984 4.51632,7.4962545 5.96817,8.1116068 L 5.96817,12.77362 C 5.94638,14.241307 6.04081,16.297432 5.96817,17.278778 L 5.96817,24.104888 C 4.51601,24.718693 3.5,26.134096 3.5,27.779985 3.5,29.989251 5.32799,31.781786 7.58519,31.781786 9.84208,31.781786 11.67007,29.989251 11.67007,27.779985 11.67007,26.134096 10.65248,24.718693 9.20032,24.104888 L 9.20032,17.278778 M 13.332912,4.4510498 17.375954,8.4741396 17.383098,5.9979384 20.790528,5.9979384 C 21.992248,5.9979384 22.648848,6.4947989 23.006678,7.0662196 23.364508,7.6376402 23.423878,8.2836209 23.430508,8.5821703 L 23.430508,16.343529 23.430508,24.104888 C 22.704428,24.411791 22.087628,24.919169 21.652098,25.55556 21.216578,26.19164 20.962338,26.95704 20.962338,27.779985 20.962338,28.884464 21.419338,29.884991 22.158688,30.609244 22.897718,31.333498 23.919098,31.781786 25.047538,31.781786 26.175978,31.781786 27.197358,31.333498 27.936388,30.609244 28.675728,29.884991 29.132728,28.884464 29.132728,27.779985 29.132728,26.95704 28.878488,26.19164 28.442968,25.55556 28.007128,24.919169 27.389688,24.411791 26.662978,24.104888 L 26.662978,16.343529 C 26.662978,13.756409 26.662978,9.0824604 26.662978,8.5821703 26.662978,7.275203 26.272308,5.9877288 25.343148,4.8387 24.413988,3.6896713 23.351453,2.8299106 20.792108,2.8299106 L 17.321518,2.8299106 17.324668,0.09758813 M 5.22756,4.436509 C 5.22756,3.1609448 6.28463,2.1273138 7.58519,2.1273138 8.88544,2.1273138 9.94093,3.1609448 9.94093,4.436509 9.94093,5.7120733 8.88544,6.7460136 7.58519,6.7460136 6.28463,6.7460136 5.22756,5.7120733 5.22756,4.436509 z M 9.94251,27.779985 C 9.94251,29.05555 8.88544,30.089181 7.58677,30.089181 6.28463,30.089181 5.22946,29.05555 5.22946,27.779985 5.22946,26.504421 6.28463,25.470481 7.58519,25.470481 8.88544,25.470481 9.94251,26.504421 9.94251,27.779985 z M 25.047538,30.089181 C 24.397248,30.089181 23.807918,29.83085 23.381248,29.412881 22.954248,28.994911 22.690218,28.417613 22.690218,27.779985 22.690218,27.142049 22.954248,26.564749 23.381248,26.14709 23.807918,25.729121 24.397248,25.470481 25.047538,25.470481 25.697818,25.470481 26.287148,25.729121 26.713828,26.14709 27.140818,26.564749 27.404848,27.142049 27.404848,27.779985 27.404848,28.417613 27.140818,28.994911 26.713828,29.412881 26.287148,29.83085 25.697818,30.089181 25.047538,30.089181 z"
     id="path8" />
</svg>
