<svg xmlns:dc="http://purl.org/dc/elements/1.1/" xmlns:cc="http://creativecommons.org/ns#" xmlns:rdf="http://www.w3.org/1999/02/22-rdf-syntax-ns#" xmlns:svg="http://www.w3.org/2000/svg" xmlns="http://www.w3.org/2000/svg" xmlns:sodipodi="http://sodipodi.sourceforge.net/DTD/sodipodi-0.dtd" xmlns:inkscape="http://www.inkscape.org/namespaces/inkscape" version="1.1" width="1024" height="1024" viewBox="0 0 1024 1024" inkscape:version="0.48.2 r9819">
  <metadata>
    <rdf:RDF>
      <cc:Work rdf:about="">
        <dc:format>image/svg+xml</dc:format>
        <dc:type rdf:resource="http://purl.org/dc/dcmitype/StillImage"/>
      </cc:Work>
    </rdf:RDF>
  </metadata>
  <defs/>
  <path d="M 301.49 371.5 301.49 254.81 C 347.46 234.92 379.63 189.22 379.63 136.02 379.63 64.61 321.75 6.68 250.29 6.68 178.82 6.68 120.94 64.61 120.94 136.02 120.94 189.22 153.12 234.92 199.09 254.81 L 199.09 405.5 C 198.4 452.94 201.39 519.4 199.09 551.12 L 199.09 771.76 C 153.11 791.6 120.94 837.35 120.94 890.55 120.94 961.96 178.82 1019.9 250.29 1019.9 321.75 1019.9 379.63 961.96 379.63 890.55 379.63 837.35 347.41 791.6 301.43 771.76 L 301.43 551.12 M 410.97 136.49 526.92 259.49 528.87 186.49 636.76 186.49 C 674.81 186.49 695.6 202.55 706.93 221.02 718.26 239.49 720.14 260.37 720.35 270.02 L 720.35 520.89 720.35 771.76 C 697.36 781.68 677.83 798.08 664.04 818.65 650.25 839.21 642.2 863.95 642.2 890.55 642.2 926.25 656.67 958.59 680.08 982 703.48 1005.41 735.82 1019.9 771.55 1019.9 807.28 1019.9 839.62 1005.41 863.02 982 886.43 958.59 900.9 926.25 900.9 890.55 900.9 863.95 892.85 839.21 879.06 818.65 865.26 798.08 845.71 781.68 822.7 771.76 L 822.7 520.89 822.7 270.02 C 822.7 232.65 810.33 186.16 780.91 149.02 751.49 111.88 705.02 84.09 636.81 84.09 L 526.92 84.09 527.02 8.09 M 175.64 136.02 C 175.64 94.79 209.11 61.38 250.29 61.38 291.46 61.38 324.88 94.79 324.88 136.02 324.88 177.25 291.46 210.67 250.29 210.67 209.11 210.67 175.64 177.25 175.64 136.02 z M 324.93 890.55 C 324.93 931.78 291.46 965.19 250.34 965.19 209.11 965.19 175.7 931.78 175.7 890.55 175.7 849.32 209.11 815.9 250.29 815.9 291.46 815.9 324.93 849.32 324.93 890.55 z M 771.55 965.19 C 750.96 965.19 732.3 956.84 718.79 943.33 705.27 929.82 696.91 911.16 696.91 890.55 696.91 869.93 705.27 851.27 718.79 837.77 732.3 824.26 750.96 815.9 771.55 815.9 792.14 815.9 810.8 824.26 824.31 837.77 837.83 851.27 846.19 869.93 846.19 890.55 846.19 911.16 837.83 929.82 824.31 943.33 810.8 956.84 792.14 965.19 771.55 965.19 z" inkscape:connector-curvature="0" sodipodi:nodetypes="ccsssccccssscccccsscccsssssssccsssccsssssssssssssssssss"/>
</svg>
